<svg height="384pt" viewBox="0 0 384 384" width="384pt" xmlns="http://www.w3.org/2000/svg"><path d="m280 280h88v88h-88zm0 0" fill="#ff8a65"/><path d="m368 192v88h-176v-88zm0 0" fill="#ff7043"/><path d="m280 104h88v88h-88zm0 0" fill="#ff8a65"/><path d="m368 16v88h-176v-88zm0 0" fill="#ff8a65"/><path d="m280 280v88h-176v-88zm0 0" fill="#ff7043"/><path d="m280 104v88h-176v-88zm0 0" fill="#ff7043"/><path d="m192 192v88h-176v-88zm0 0" fill="#ff8a65"/><path d="m192 16v88h-176v-88zm0 0" fill="#ff7043"/><path d="m16 280h88v88h-88zm0 0" fill="#ff8a65"/><path d="m16 104h88v88h-88zm0 0" fill="#ff8a65"/><path d="m368 0h-352c-8.832031 0-16 7.167969-16 16v352c0 8.832031 7.167969 16 16 16h352c8.832031 0 16-7.167969 16-16v-352c0-8.839844-7.167969-16-16-16zm-104 120v56h-144v-56zm88 0v56h-56v-56zm-264 56h-56v-56h56zm-56 32h144v56h-144zm232 88v56h-144v-56zm-56-32v-56h144v56zm144-176h-144v-56h144zm-176-56v56h-144v-56zm-144 264h56v56h-56zm264 56v-56h56v56zm0 0" fill="#012e52"/></svg>